<svg width="24" height="24" viewBox="0 0 24 24" fill="none" xmlns="http://www.w3.org/2000/svg">
<path d="M15 4.5C15.3978 4.5 15.7794 4.65804 16.0607 4.93934C16.342 5.22064 16.5 5.60218 16.5 6V18C16.5 18.3978 16.342 18.7794 16.0607 19.0607C15.7794 19.342 15.3978 19.5 15 19.5H9C8.60218 19.5 8.22064 19.342 7.93934 19.0607C7.65804 18.7794 7.5 18.3978 7.5 18V6C7.5 5.60218 7.65804 5.22064 7.93934 4.93934C8.22064 4.65804 8.60218 4.5 9 4.5H15ZM9 3C8.20435 3 7.44129 3.31607 6.87868 3.87868C6.31607 4.44129 6 5.20435 6 6V18C6 18.7956 6.31607 19.5587 6.87868 20.1213C7.44129 20.6839 8.20435 21 9 21H15C15.7956 21 16.5587 20.6839 17.1213 20.1213C17.6839 19.5587 18 18.7956 18 18V6C18 5.20435 17.6839 4.44129 17.1213 3.87868C16.5587 3.31607 15.7956 3 15 3H9Z" fill="#221E20"/>
<path d="M12 18C12.3978 18 12.7794 17.842 13.0607 17.5607C13.342 17.2794 13.5 16.8978 13.5 16.5C13.5 16.1022 13.342 15.7206 13.0607 15.4393C12.7794 15.158 12.3978 15 12 15C11.6022 15 11.2207 15.158 10.9394 15.4393C10.658 15.7206 10.5 16.1022 10.5 16.5C10.5 16.8978 10.658 17.2794 10.9394 17.5607C11.2207 17.842 11.6022 18 12 18ZM2.39851 6.087C2.4856 6.13308 2.56275 6.19586 2.62556 6.27176C2.68837 6.34766 2.73562 6.43519 2.76459 6.52936C2.79356 6.62352 2.8037 6.72248 2.79442 6.82056C2.78514 6.91864 2.75663 7.01394 2.71051 7.101C1.91288 8.6106 1.49726 10.2926 1.50001 12C1.50001 13.77 1.93801 15.438 2.71051 16.899C2.8036 17.0748 2.82303 17.2805 2.76452 17.4706C2.70601 17.6608 2.57435 17.8199 2.39851 17.913C2.22267 18.0061 2.01706 18.0255 1.82689 17.967C1.63673 17.9085 1.4776 17.7768 1.38451 17.601C0.472548 15.8751 -0.00280132 13.952 1.24191e-05 12C1.24191e-05 9.9795 0.501012 8.0715 1.38451 6.399C1.43059 6.31192 1.49337 6.23476 1.56927 6.17195C1.64517 6.10914 1.73271 6.0619 1.82687 6.03292C1.92104 6.00395 2.01999 5.99381 2.11807 6.00309C2.21616 6.01237 2.31145 6.04088 2.39851 6.087V6.087ZM21.6015 6.087C21.6886 6.04088 21.7839 6.01237 21.882 6.00309C21.98 5.99381 22.079 6.00395 22.1732 6.03292C22.2673 6.0619 22.3549 6.10914 22.4308 6.17195C22.5067 6.23476 22.5694 6.31192 22.6155 6.399C23.5275 8.1249 24.0029 10.0479 24 12C24.0029 13.9521 23.5275 15.8751 22.6155 17.601C22.5224 17.7768 22.3633 17.9085 22.1731 17.967C21.983 18.0255 21.7774 18.0061 21.6015 17.913C21.4257 17.8199 21.294 17.6608 21.2355 17.4706C21.177 17.2805 21.1964 17.0748 21.2895 16.899C22.0871 15.3894 22.5028 13.7074 22.5 12C22.5 10.23 22.062 8.562 21.2895 7.101C21.2434 7.01394 21.2149 6.91864 21.2056 6.82056C21.1963 6.72248 21.2065 6.62352 21.2354 6.52936C21.2644 6.43519 21.3117 6.34766 21.3745 6.27176C21.4373 6.19586 21.5144 6.13308 21.6015 6.087ZM4.58551 8.301C4.67734 8.3368 4.76121 8.39036 4.83233 8.4586C4.90345 8.52684 4.96042 8.60843 4.99998 8.6987C5.03954 8.78897 5.06093 8.88616 5.06291 8.9847C5.06488 9.08324 5.04742 9.18121 5.01151 9.273C4.67242 10.1421 4.49893 11.0671 4.50001 12C4.50001 12.963 4.68001 13.8825 5.01001 14.727C5.05187 14.8197 5.07443 14.9199 5.07633 15.0216C5.07823 15.1233 5.05942 15.2244 5.02105 15.3186C4.98268 15.4128 4.92555 15.4982 4.85314 15.5696C4.78072 15.641 4.69454 15.697 4.59982 15.734C4.5051 15.7711 4.40383 15.7885 4.30217 15.7852C4.20051 15.782 4.10058 15.758 4.00846 15.7149C3.91634 15.6718 3.83396 15.6103 3.76632 15.5344C3.69868 15.4584 3.6472 15.3695 3.61501 15.273C3.20771 14.2299 2.99912 13.1198 3.00001 12C3.00001 10.8465 3.21751 9.7425 3.61501 8.727C3.68734 8.54191 3.83016 8.39308 4.01213 8.31321C4.19409 8.23334 4.40031 8.22895 4.58551 8.301V8.301ZM19.4145 8.301C19.5063 8.26509 19.6043 8.24763 19.7028 8.24961C19.8014 8.25159 19.8985 8.27297 19.9888 8.31253C20.0791 8.3521 20.1607 8.40907 20.2289 8.48018C20.2972 8.5513 20.3507 8.63517 20.3865 8.727C20.7825 9.7425 21 10.8465 21 12C21 13.1535 20.7825 14.2575 20.385 15.273C20.3059 15.4482 20.1625 15.5864 19.9844 15.6589C19.8063 15.7315 19.6072 15.7329 19.4281 15.6628C19.249 15.5927 19.1037 15.4565 19.0222 15.2824C18.9407 15.1082 18.9292 14.9094 18.99 14.727C19.32 13.8825 19.5 12.963 19.5 12C19.5 11.037 19.32 10.1175 18.99 9.273C18.9174 9.08781 18.9213 8.88137 19.001 8.69908C19.0806 8.5168 19.2293 8.3736 19.4145 8.301V8.301Z" fill="#221E20"/>
</svg>
