<svg width="88" height="88" viewBox="0 0 88 88" fill="none" xmlns="http://www.w3.org/2000/svg">
<path d="M37.6591 3.80253C38.4627 2.91973 39.4418 2.21446 40.5337 1.73187C41.6256 1.24928 42.8062 1 44 1C45.1938 1 46.3744 1.24928 47.4663 1.73187C48.5582 2.21446 49.5373 2.91973 50.3409 3.80253L54.7139 8.60428C55.563 9.5364 56.6072 10.2698 57.7721 10.7522C58.937 11.2346 60.194 11.4542 61.4535 11.3953L67.9401 11.0952C69.1321 11.039 70.3227 11.2323 71.4357 11.6626C72.5488 12.0929 73.5597 12.7508 74.4039 13.5942C75.2481 14.4376 75.907 15.4479 76.3384 16.5605C76.7697 17.6731 76.9641 18.8635 76.9091 20.0556L76.6047 26.5465C76.5458 27.806 76.7654 29.063 77.2478 30.2279C77.7302 31.3928 78.4636 32.437 79.3957 33.2861L84.1975 37.6591C85.0803 38.4627 85.7856 39.4418 86.2682 40.5337C86.7507 41.6256 87 42.8062 87 44C87 45.1938 86.7507 46.3744 86.2682 47.4663C85.7856 48.5582 85.0803 49.5373 84.1975 50.3409L79.3957 54.7139C78.4636 55.563 77.7302 56.6072 77.2478 57.7721C76.7654 58.937 76.5458 60.194 76.6047 61.4535L76.9048 67.9401C76.961 69.1321 76.7677 70.3227 76.3374 71.4357C75.9071 72.5488 75.2492 73.5597 74.4058 74.4039C73.5624 75.2481 72.5521 75.907 71.4395 76.3384C70.3269 76.7697 69.1365 76.9641 67.9444 76.9091L61.4535 76.6047C60.194 76.5458 58.937 76.7654 57.7721 77.2478C56.6072 77.7302 55.563 78.4636 54.7139 79.3957L50.3409 84.1975C49.5373 85.0803 48.5582 85.7856 47.4663 86.2682C46.3744 86.7507 45.1938 87 44 87C42.8062 87 41.6256 86.7507 40.5337 86.2682C39.4418 85.7856 38.4627 85.0803 37.6591 84.1975L33.2861 79.3957C32.437 78.4636 31.3928 77.7302 30.2279 77.2478C29.063 76.7654 27.806 76.5458 26.5465 76.6047L20.0599 76.9048C18.8679 76.961 17.6773 76.7677 16.5643 76.3374C15.4513 75.9071 14.4403 75.2492 13.5961 74.4058C12.7519 73.5624 12.093 72.5521 11.6617 71.4395C11.2303 70.3269 11.0359 69.1365 11.0909 67.9444L11.3953 61.4535C11.4542 60.194 11.2346 58.937 10.7522 57.7721C10.2698 56.6072 9.5364 55.563 8.60428 54.7139L3.80253 50.3409C2.91973 49.5373 2.21446 48.5582 1.73187 47.4663C1.24928 46.3744 1 45.1938 1 44C1 42.8062 1.24928 41.6256 1.73187 40.5337C2.21446 39.4418 2.91973 38.4627 3.80253 37.6591L8.60428 33.2861C9.5364 32.437 10.2698 31.3928 10.7522 30.2279C11.2346 29.063 11.4542 27.806 11.3953 26.5465L11.0952 20.0599C11.039 18.8679 11.2323 17.6773 11.6626 16.5643C12.0929 15.4513 12.7508 14.4403 13.5942 13.5961C14.4376 12.7519 15.4479 12.093 16.5605 11.6617C17.6731 11.2303 18.8635 11.0359 20.0556 11.0909L26.5465 11.3953C27.806 11.4542 29.063 11.2346 30.2279 10.7522C31.3928 10.2698 32.437 9.5364 33.2861 8.60428L37.6591 3.80253Z" fill="white" stroke="#F48221" stroke-width="1.5"/>
</svg>
